<svg xmlns="http://www.w3.org/2000/svg" viewBox="0 0 1020.5 219.33"><defs><style>.cls-1,.cls-2{fill:#a2762b;}.cls-2{fill-rule:evenodd;}</style></defs><g id="Layer_2" data-name="Layer 2"><g id="Layer_1-2" data-name="Layer 1"><rect class="cls-1" x="326.11" y="114.61" width="18.2" height="18.2"></rect><rect class="cls-1" x="351.31" y="114.61" width="18.2" height="18.2"></rect><path class="cls-2" d="M61.63,20.78a15.79,15.79,0,0,0-6.21,12.85v72H23.24V67.79A15.87,15.87,0,0,0,16.93,55,17.64,17.64,0,0,0,4.68,51.07v58.12c0,10,5.49,15,15.72,15H58.26c10.47,0,15.71-5.37,15.71-15.87V16.9A17.91,17.91,0,0,0,61.63,20.78Z" transform="translate(-4.68)"></path><path class="cls-2" d="M218.4,54.18A26.55,26.55,0,0,0,205.57,51H183.51a16.68,16.68,0,0,0-16.68,16.68h14.48v8.73a5.3,5.3,0,0,1-1.57,3.91A5.18,5.18,0,0,1,176,81.93L106.54,82V16.9a18,18,0,0,0-12.34,3.88A15.78,15.78,0,0,0,88,33.65V84.89q0,15.72,15.74,15.72h2.82v-.11a1.43,1.43,0,0,0,.58.11H176q8.51,0,13.53-6a24.75,24.75,0,0,0,7.34,4.55,23.35,23.35,0,0,0,8.75,1.63A25,25,0,0,0,220,96.32a25.3,25.3,0,0,0,6.58-6.59,25,25,0,0,0,4.5-14.43,23.14,23.14,0,0,0-3.44-12.43A24.39,24.39,0,0,0,218.4,54.18ZM211.17,81a7.48,7.48,0,0,1-5.6,2.28A7.3,7.3,0,0,1,200,81a7.88,7.88,0,0,1-2.16-5.65V67.71h7.7a7.69,7.69,0,0,1,5.6,2.16,7.26,7.26,0,0,1,2.22,5.43A7.76,7.76,0,0,1,211.17,81Z" transform="translate(-4.68)"></path><path class="cls-2" d="M558.08,49.48H422.66l44-44h0a18.57,18.57,0,0,0-26.26,0L409.59,36.29a18.55,18.55,0,0,0-5,16.9c0,.09,0,.17.07.26.1.48.22,1,.37,1.44.07.25.17.49.25.73s.22.62.34.92.33.72.5,1.07c.08.17.16.35.25.52.27.51.57,1,.88,1.5h0a18.57,18.57,0,0,0,15.54,8.41H555.27v14H390.15V65.63A15.79,15.79,0,0,0,384,52.76,17.81,17.81,0,0,0,371.6,49V82.05l-93.93.11V17.43a18,18,0,0,0-12.33,3.88,15.76,15.76,0,0,0-6.22,12.87V84.89q0,15.72,15.74,15.71h299V65.23A15.75,15.75,0,0,0,558.08,49.48Z" transform="translate(-4.68)"></path><path class="cls-2" d="M675.93,169.83c25.45-25.27,52.07-51.68,77.18-77.16l57.75-57.79-5.81-5.62a52.67,52.67,0,0,0-4.93,4.8l-4.83,4.85C780.9,53.31,652.38,181.29,651,183.34c.5,1.12,4.57,4.85,5.57,5.76Z" transform="translate(-4.68)"></path><path class="cls-2" d="M641.38,171.82c.74,1.12,4.32,6,5.3,6.52L800.06,25c-.94-1.49-4.52-3.78-6.45-5.23Z" transform="translate(-4.68)"></path><path class="cls-2" d="M637.21,165.45c1.32-.75,35.69-35.49,37.66-37.47,6.3-6.35,12.46-12.42,18.77-18.78,5.43-5.46,13.61-13.22,18.64-18.62,3-3.2,6.2-6.09,9.38-9.4l23.53-23.42c1-.86,1.47-1.62,2.29-2.4l7.1-7c1-.88,1.43-1.64,2.3-2.4a16.12,16.12,0,0,0,1.26-1.09l26.93-27.06a7.12,7.12,0,0,0,2-2.32c-2.24-1.34-5-2.78-7.38-4L633.3,158.11c1,2.32,3.47,6.19,3.91,7.34Z" transform="translate(-4.68)"></path><path class="cls-2" d="M630.17,151.34c1.21-.35,8.29-7.9,9.14-8.74L693,88.93c.75-.74,1.19-1.4,2.16-2.25l55.88-55.9c1.42-1.2,2.87-2.92,4.36-4.45,1.78-1.85,16.77-16.28,17.73-17.9-2.19-.61-6.21-2.82-8.59-2.89C759,11.46,753.13,16.93,747.4,22.7s-11.35,11.44-17.17,17.18C718.64,51.3,707.5,62.8,695.89,74.2s-22.77,22.87-34.34,34.31-22.82,22.81-34.34,34.34c0,1.36,2.23,7.12,3,8.49Z" transform="translate(-4.68)"></path><path class="cls-2" d="M625.07,135.63c.46-.53,1.29-1.16,1.94-1.81l47.21-47.26c1.44-1.45,2.68-2.68,4.11-4.11,1.91-1.91,3.52-2.89,3.6-4.72.09-2.06-.33-1.93.89-3.1,3.86-3.73,71-70.56,71.73-71.95-4.65-1.35-3.26-1.56-10.37,5.66-6.7,6.81-61.15,61.55-62.26,61.92V67.34C680.42,68,668.15,80.81,667,82c-12.22,11.94-24.49,24.6-36.65,36.7l-7.22,7.1a43.92,43.92,0,0,0,2,9.88Z" transform="translate(-4.68)"></path><path class="cls-2" d="M681.93,48.27l0-2.91c-1.43.64-13.7,13.43-15.19,14.9-5.14,5.07-10,10-15.1,15.12L629,98c-7.86,7.77-7.61,5.66-7.25,14.68l.32,4c2.51-2,5.21-5.07,7.59-7.44L652.84,86C658,80.79,663,75.8,668.26,70.62c2.62-2.6,5-5,7.62-7.65,5.83-5.84,6-4.58,6-9.57a72,72,0,0,0,6.67-6.46L708.7,26.85c2.65-2.62,26.09-25.78,26.35-26.73-5.74-.3-4.18-.48-10.07,5.46L694.31,36.23c-1.51,1.54-11.26,11.67-12.38,12Z" transform="translate(-4.68)"></path><path class="cls-2" d="M681.92,27.13V24.31c-1.49.7-6.7,6.39-8.28,8L629,76.87c-1.2,1.2-3.27,2.73-3.75,4.46a110.32,110.32,0,0,0-2.61,13.58c1.55-1,53.13-53,57.33-57.15,1.34-1.33,1.91-1.14,1.91-3.77,0-2.31.9-2.47,2.1-3.66,4.56-4.49,28-27.68,28.52-28.8C706,3,708,1.31,703.22,6.12L689.15,20.21c-1.22,1.21-6.14,6.61-7.23,6.92Z" transform="translate(-4.68)"></path><path class="cls-2" d="M724.6,129.65c.38.81.36.66,1,1.35.43.41.62.6,1,1l66.55,66.62c1.49-.57,5.67-3.94,6.8-5l-34.83-35c-5.94-5.84-11.55-11.57-17.48-17.44L734.49,128a54.78,54.78,0,0,0-4.19-4.14,58.42,58.42,0,0,0-5.7,5.76Z" transform="translate(-4.68)"></path><path class="cls-2" d="M803.56,187.35l.14-11.7L789,161c-.86-.86-1.51-1.17-2.3-2.1-1.92-2.25-9.74-9.63-13-13.13-.75-.82-1.55-1.3-2.3-2.11L740.8,113.27c-1.18,1.43-4.88,4.53-5.52,5.85Z" transform="translate(-4.68)"></path><path class="cls-2" d="M779.41,206.79c1.4-.17,2.79-1.18,4.07-1.9a24.7,24.7,0,0,0,3.62-2.19c-.68-1.18-6.91-7.12-8.41-8.55-8.18-7.84-17-17.15-25.39-25.37L723.56,139a34.24,34.24,0,0,0-4.19-4,39.16,39.16,0,0,0-5.86,5.94Z" transform="translate(-4.68)"></path><path class="cls-2" d="M708.81,145.46c-1.14.8-5.28,4.87-5.85,6,1.3.69,6.39,6.12,7.85,7.58,4.72,4.72,52.59,52.87,54,53.91,1.1-.29,7.16-2.39,8.29-3.21-.71-1.26-13.9-14.15-16.06-16.29-3.53-3.51-46.72-47.28-48.27-48Z" transform="translate(-4.68)"></path><path class="cls-2" d="M631,65.46c1.48-.67,5.23-4.93,6.68-6.35l43.61-43.54c1-1.09.64-1.42.64-3.85-6.33,1.9-18.12,11.31-23.41,15.7-.7.59-1,1.07-1.61,1.61A107.14,107.14,0,0,0,643,44.43l-2.73,4C637.68,52,632,61.36,631,65.46Z" transform="translate(-4.68)"></path><path class="cls-2" d="M758.45,95.64l45.21,45.19,0-5.1c-14.24-14.22-28.43-28.41-42.72-42.58Z" transform="translate(-4.68)"></path><path class="cls-2" d="M747.44,106.71c.4.73,0,.11.43.6l1.63,1.61c.85,1,1.43,1.43,2.2,2.2l30.36,30.36c5.86,5.82,11.49,11.47,17.31,17.33l4.31,4.43V158L749.9,104.16Z" transform="translate(-4.68)"></path><path class="cls-2" d="M769.14,85l34.54,34.89c0-1.13,0-4.4,0-5.59l-32.1-31.84Z" transform="translate(-4.68)"></path><path class="cls-2" d="M780.17,74.2l23.51,23.61V92.22S786.4,74.71,783.18,71.47Z" transform="translate(-4.68)"></path><path class="cls-2" d="M694.14,160.19c2.32,1.88,5.24,5.17,7.5,7.43l44,44c2.78,2.81,4.1,5,6.14,4.73a6.44,6.44,0,0,0,2.72-.75l-21.79-21.86c-3.8-3.7-34.84-35.12-36.29-36.06Z" transform="translate(-4.68)"></path><path class="cls-2" d="M790.9,63.34l12.78,13c0-6.62-.14-5.43-3.35-8.76l-6.67-6.77a9.26,9.26,0,0,0-2.76,2.58Z" transform="translate(-4.68)"></path><path class="cls-2" d="M683.68,170.48c.56,1,10.33,10.52,12,12.19l30.08,30.07c6.27,6.25,4.16,5.62,10.16,5.56-.74-1.67-39.41-39.74-43.78-44.12-1.24-1.24-5-5.33-6.17-6Z" transform="translate(-4.68)"></path><path class="cls-2" d="M801.85,52.47l1.84,1.84c.06-1.48,0-2.7,0-3.67Z" transform="translate(-4.68)"></path><path class="cls-2" d="M706.79,214.7c1.09,1.13,1.05,1.26,3.08,1.62a27.23,27.23,0,0,0,3.75.58c-6-6.38-12.64-12.79-19-19.08l-19.21-19.1L673.25,181Z" transform="translate(-4.68)"></path><path class="cls-2" d="M662.56,191.64c3,2.92,5.77,6,8.85,8.85a55.62,55.62,0,0,0,11.37,6.62c-.85-1.29-16.48-17-17.69-17.73a7,7,0,0,0-2.53,2.26Z" transform="translate(-4.68)"></path><path class="cls-2" d="M906.51,132.78l2,2c.56-1.54.22-9.25.22-11.48V60.21c0-1.69.38-4.24-.5-5.8A109.48,109.48,0,0,0,900.48,43c-.42,1.77-.11,75-.13,80.94,0,1.89-.54,2.16,1.32,4,1.63,1.64,1.11,2.39,1.1,4.07,0,6.4-.23,39.39.2,40.54,3.61-5.65,3.36-3,3.33-9.83V142.79c0-1.72-.34-9,.21-10Z" transform="translate(-4.68)"></path><path class="cls-2" d="M891.56,117.84l2.07,2c.56-1.46.2-19.17.21-21.27,0-7.22,0-14.15,0-21.37l0-31.95c0-11.05,1.37-9.38-5.26-15.5l-3.05-2.6c-.34,3.2-.1,7.27-.1,10.63V70.58c0,7.37,0,14.43,0,21.79,0,3.7,0,7.09,0,10.79,0,8.26-1,7.51,2.5,11a71.43,71.43,0,0,0-.15,9.29l0,28.42c0,3.73-.22,36.69.27,37.54,4.27-3.85,3.3-2.62,3.26-11l0-43.36c0-2.16-.3-16.22.24-17.27Z" transform="translate(-4.68)"></path><path class="cls-2" d="M870,15.86c0,.7-.1,1.73-.09,2.66l0,66.8c0,2,0,3.78,0,5.81,0,2.7-.45,4.53.8,5.88,1.39,1.52,1.59,1.14,1.56,2.82-.1,5.37-.29,100.07.16,101.6,4.24-2.34,3.4-1.2,3.32-11.34-.07-9.55-.27-86.76.25-87.81l2.07,2.06c.61-1.49.2-19.25.22-20.88.2-17.09-.08-34.72,0-51.87l.07-10.13a43.47,43.47,0,0,0-8.36-5.6Z" transform="translate(-4.68)"></path><path class="cls-2" d="M855.27,8.36C854.67,9.47,855,19.81,855,21l0,75.94c0,1,.15,1.83.07,3.11v79c-.16,1.85,0,4.1.07,6.23,0,2.57-.35,23.37.12,25.2,2-1.12,6.38-2.4,8.11-4-.22-8.14,0-16.13,0-24.27s-.06-16.11,0-24.28c.12-16.27-.14-32.28,0-48.55s-.08-32.28,0-48.55,0-32.27,0-48.56c-1-.93-6.61-3.46-8.1-3.91Z" transform="translate(-4.68)"></path><path class="cls-2" d="M840.31,3.36c-.4,1.46-.14,50.33-.13,53.12,0,9,0,17.6,0,26.56,0,7.7-.27,19,0,26.34.15,4.38-.08,8.7,0,13.28l-.08,33.2c-.08,1.3.11,2.18.08,3.32l-.08,10c-.08,1.32.14,2.17.07,3.32a13,13,0,0,0-.12,1.66l.09,38.17a7.1,7.1,0,0,0,.19,3.1c2.53-.64,5.52-1.59,8-2.38L848.28,5.79c-2.35-.94-6.83-1.93-8-2.43Z" transform="translate(-4.68)"></path><path class="cls-2" d="M832.86,1.8c-1.31-.26-7.26-1.15-8.35-.85l0,216.88c1.72.39,5.86-.52,8.26-.87Z" transform="translate(-4.68)"></path><path class="cls-2" d="M919.6,69.69l.08,9.12v3.56l.05,54.58v3.47c-.07,1.48-.56,1.46-2.28,3.18h0l0,.08c-1.72-1.72-2.21-1.71-2.28-3.18v-3.63l.05-54.57V78.88l.23-9.21Z" transform="translate(-4.68)"></path><path class="cls-2" d="M928.36,132.7l-2,2c-.56-1.55-.22-9.26-.22-11.49V60.14c0-1.7-.38-4.24.5-5.81a110.43,110.43,0,0,1,7.76-11.44c.42,1.76.12,75,.13,80.94,0,1.89.54,2.16-1.32,4-1.63,1.64-1.11,2.38-1.1,4.07,0,6.4.23,39.39-.2,40.53-3.61-5.64-3.36-3-3.33-9.83v-19.9c0-1.73.34-9-.21-10Z" transform="translate(-4.68)"></path><path class="cls-2" d="M943.31,117.76l-2.07,2c-.56-1.46-.2-19.18-.21-21.27,0-7.23,0-14.15,0-21.38l0-31.95c0-11-1.38-9.38,5.26-15.5l3.05-2.59c.34,3.2.1,7.27.11,10.63V70.51c0,7.36,0,14.43,0,21.78,0,3.7,0,7.1,0,10.8,0,8.25,1,7.51-2.5,11a71.37,71.37,0,0,1,.15,9.29v28.42c0,3.73.23,36.68-.26,37.54-4.27-3.85-3.3-2.62-3.26-11l0-43.36c0-2.17.3-16.22-.24-17.28Z" transform="translate(-4.68)"></path><path class="cls-2" d="M964.88,15.79c0,.7.1,1.73.1,2.65l0,66.8c0,2,0,3.78,0,5.82,0,2.7.44,4.53-.8,5.88-1.39,1.51-1.59,1.13-1.56,2.82.1,5.36.29,100.06-.16,101.59-4.24-2.33-3.4-1.2-3.32-11.33.07-9.56.27-86.77-.25-87.81l-2.07,2.06c-.61-1.5-.2-19.26-.22-20.89-.2-17.08.07-34.72,0-51.87l-.08-10.12a42.92,42.92,0,0,1,8.37-5.6Z" transform="translate(-4.68)"></path><path class="cls-2" d="M979.6,8.29c.6,1.1.27,11.45.27,12.64l0,75.93c0,1-.14,1.83-.06,3.11V179c.15,1.85,0,4.09-.07,6.22,0,2.57.35,23.38-.12,25.2-2-1.12-6.38-2.39-8.11-4,.22-8.13,0-16.13,0-24.27s.06-16.1,0-24.28c-.12-16.27.14-32.28,0-48.55s.08-32.27,0-48.54,0-32.27,0-48.56c1-.94,6.61-3.47,8.1-3.91Z" transform="translate(-4.68)"></path><path class="cls-2" d="M994.56,3.28c.4,1.47.14,50.34.13,53.12,0,9,0,17.6,0,26.56,0,7.7.27,19,0,26.35-.15,4.37.08,8.69,0,13.28l.08,33.2c.08,1.29-.11,2.18-.08,3.31l.08,10c.08,1.32-.14,2.17-.07,3.32a13.1,13.1,0,0,1,.12,1.66l-.09,38.18a7,7,0,0,1-.19,3.09c-2.53-.63-5.52-1.58-8-2.38l.11-207.22c2.35-.93,6.83-1.93,8-2.43Z" transform="translate(-4.68)"></path><path class="cls-2" d="M1002,1.73c1.3-.27,7.26-1.16,8.35-.86l0,216.88c-1.72.39-5.86-.52-8.26-.86Z" transform="translate(-4.68)"></path><path class="cls-2" d="M1025,27.57c.12,35.86.27,73.36,0,109.13l0,81.7-8.08-.14a52,52,0,0,1-.09-6.87c0-2.39,0-4.47,0-6.85,0-20.36-.38-201.73.11-204.15,1.14-.44,6.65-.2,8-.13Z" transform="translate(-4.68)"></path><path class="cls-2" d="M809.84,27.65c-.12,35.86-.27,73.36,0,109.12l0,81.71,8.08-.14a52.16,52.16,0,0,0,.09-6.88c0-2.38,0-4.46,0-6.84,0-20.36.38-201.74-.11-204.15-1.14-.44-6.65-.2-8-.14Z" transform="translate(-4.68)"></path><path class="cls-1" d="M4.86,177.22h5.62v14.1A9.43,9.43,0,0,0,20,200.84H35.06a5.66,5.66,0,0,0,4-9.69,5.45,5.45,0,0,0-4-1.67h-11v-4.8H35a13.39,13.39,0,0,1,5.89,1.3,10.31,10.31,0,0,1,4.21,3.67,9.82,9.82,0,0,1,1.54,5.51A11.41,11.41,0,0,1,45.05,201a11.68,11.68,0,0,1-4.24,4.28A11.25,11.25,0,0,1,35,206.87H20a14.73,14.73,0,0,1-7.6-2.06,15.24,15.24,0,0,1-5.51-5.54,15,15,0,0,1-2-7.67Zm17.33,12.26v-6H50.33a.6.6,0,0,1,.68.68v4.59a.61.61,0,0,1-.68.69Z" transform="translate(-4.68)"></path><path class="cls-1" d="M49.64,188.79V184.2a.61.61,0,0,1,.69-.68H62.86a16.23,16.23,0,0,0,5.68-1,14.62,14.62,0,0,0,4.66-2.78l8.62-7.87-12-5.75a7.1,7.1,0,0,0-2.87-.76,5.76,5.76,0,0,0-2.37.55,7.16,7.16,0,0,0-2.08,1.44L57.52,173l-3.91-3.35,4.93-6A11,11,0,0,1,67,159.76a8.39,8.39,0,0,1,2.61.34,18.66,18.66,0,0,1,2.39,1l14.93,7a2.78,2.78,0,0,0,1.23.21h5.69v5.54H87.3l-3,2.74v1.23A5.74,5.74,0,0,0,90,183.52H97a.6.6,0,0,1,.68.68v4.59a.61.61,0,0,1-.68.69H90a9.67,9.67,0,0,1-6.68-2.5A10.23,10.23,0,0,1,80,180.71l-3.69,3.42a19.49,19.49,0,0,1-6.54,4A22.65,22.65,0,0,1,62,189.48H50.33A.61.61,0,0,1,49.64,188.79Z" transform="translate(-4.68)"></path><path class="cls-1" d="M96.27,188.79V184.2a.61.61,0,0,1,.69-.68h13a5.5,5.5,0,0,0,4.07-1.71,5.75,5.75,0,0,0,1.68-4.18V165.17h5.68V178a11.25,11.25,0,0,1-1.54,5.79,11.37,11.37,0,0,1-4.18,4.17,11.11,11.11,0,0,1-5.71,1.55H97A.61.61,0,0,1,96.27,188.79Zm2.26,7.12h6V202h-6Zm9.66,0h6V202h-6Z" transform="translate(-4.68)"></path><path class="cls-1" d="M125.37,198.31a10.34,10.34,0,0,0,3.32-3.87,14.29,14.29,0,0,0,1.13-6.27V167.29h5.62v20.88a20.19,20.19,0,0,1-1.51,8.36,14.68,14.68,0,0,1-4.66,5.65,58.67,58.67,0,0,1-9,5.24l-2.13-4.73A80,80,0,0,0,125.37,198.31Zm8.6-12.09a12.53,12.53,0,0,1-2.64-8.18V167.29h4.11v10.54a5.74,5.74,0,0,0,5.75,5.69h3.15a.6.6,0,0,1,.68.68v4.59a.61.61,0,0,1-.68.69h-3.15A8.78,8.78,0,0,1,134,186.22Z" transform="translate(-4.68)"></path><path class="cls-1" d="M143.65,188.79V184.2a.61.61,0,0,1,.69-.68h33.82a.61.61,0,0,1,.69.68v4.59a.61.61,0,0,1-.69.69H144.34A.61.61,0,0,1,143.65,188.79Zm6.06-19.34a13.44,13.44,0,0,1,4.86-4.73,13.24,13.24,0,0,1,6.68-1.74,13.59,13.59,0,0,1,6.71,1.71,12.84,12.84,0,0,1,6.64,11.36,12.59,12.59,0,0,1-1.78,6.65,12.41,12.41,0,0,1-4.82,4.58,14.55,14.55,0,0,1-13.46,0,12.38,12.38,0,0,1-4.86-4.58,12.59,12.59,0,0,1-1.78-6.65A12.43,12.43,0,0,1,149.71,169.45Zm6.3,12a7.61,7.61,0,0,0,10.48,0,6.91,6.91,0,0,0,2.16-5.17,7,7,0,0,0-2.16-5.17,7.44,7.44,0,0,0-10.48,0,7,7,0,0,0-2.15,5.17A6.9,6.9,0,0,0,156,181.43Zm2.23-30.71h6.09v6h-6.09Z" transform="translate(-4.68)"></path><path class="cls-1" d="M177.48,188.79V184.2a.6.6,0,0,1,.68-.68h5.07a5.48,5.48,0,0,0,4.07-1.71,5.75,5.75,0,0,0,1.68-4.18V165.17h5.62V178a11.54,11.54,0,0,1-5.69,10,11,11,0,0,1-5.75,1.55h-5A.61.61,0,0,1,177.48,188.79Zm1.3-36.15h6v6h-6Zm9.58,0h6.1v6h-6.1Z" transform="translate(-4.68)"></path><path class="cls-1" d="M224.38,202.83a15.16,15.16,0,0,1-5.51-5.51,14.87,14.87,0,0,1-2-7.64V175.3h5.61v14a9.58,9.58,0,0,0,1.27,4.83,9.27,9.27,0,0,0,3.46,3.49,9.42,9.42,0,0,0,4.79,1.26h14.86a5.66,5.66,0,0,0,4.24-1.67,5.78,5.78,0,0,0,1.65-4.21,5.84,5.84,0,0,0-1.24-3.63,5.52,5.52,0,0,0-3.28-2.13l-16-3.62v-7.19a12,12,0,0,1,1.71-6.23,12.86,12.86,0,0,1,4.62-4.59,12.27,12.27,0,0,1,6.33-1.71H255.6v5.61H244.78a7,7,0,0,0-7,7v2.61q6.7,1.43,12.26,2.8a11.1,11.1,0,0,1,6.19,4.21,11.62,11.62,0,0,1,2.37,7.09,11.25,11.25,0,0,1-1.58,5.82,11.83,11.83,0,0,1-4.24,4.25,11.39,11.39,0,0,1-5.89,1.57H232A14.72,14.72,0,0,1,224.38,202.83Z" transform="translate(-4.68)"></path><path class="cls-1" d="M266,198.72a10.22,10.22,0,0,0,2.26-4.28,28.53,28.53,0,0,0,.55-6.27V167.29h5.68v20.88a30.19,30.19,0,0,1-.89,8.05,14.05,14.05,0,0,1-3.18,5.65,37.78,37.78,0,0,1-6.75,5.55l-3.08-4.18A28.71,28.71,0,0,0,266,198.72Z" transform="translate(-4.68)"></path><path class="cls-1" d="M288.67,187.93a11.5,11.5,0,0,1-4.14-4.17A11.25,11.25,0,0,1,283,178V144.35h5.62v33.28a5.74,5.74,0,0,0,1.67,4.18,5.51,5.51,0,0,0,4.08,1.71h3.08a.6.6,0,0,1,.68.68v4.59a.61.61,0,0,1-.68.69h-3A11.1,11.1,0,0,1,288.67,187.93Z" transform="translate(-4.68)"></path><path class="cls-1" d="M296.75,188.79V184.2a.61.61,0,0,1,.69-.68H310a16.19,16.19,0,0,0,5.68-1,14.62,14.62,0,0,0,4.66-2.78l8.63-7.87-12.06-5.75a7.1,7.1,0,0,0-2.87-.76,5.68,5.68,0,0,0-2.36.55,7.2,7.2,0,0,0-2.09,1.44L304.63,173l-3.9-3.35,4.93-6a10.7,10.7,0,0,1,3.69-2.8,10.94,10.94,0,0,1,4.73-1,8.32,8.32,0,0,1,2.6.34,19.35,19.35,0,0,1,2.4,1l14.92,7a2.83,2.83,0,0,0,1.23.21h5.69v5.54h-6.51l-3,2.74v1.23a5.46,5.46,0,0,0,1.68,4,5.53,5.53,0,0,0,4.07,1.68h6.92a.6.6,0,0,1,.68.68v4.59a.61.61,0,0,1-.68.69h-6.92a9.49,9.49,0,0,1-6.61-2.47,11.16,11.16,0,0,1-3.45-6.3l-3.63,3.42a19.29,19.29,0,0,1-6.54,4,22.65,22.65,0,0,1-7.84,1.37H297.44A.61.61,0,0,1,296.75,188.79Zm14.25,7h6v6.09h-6Z" transform="translate(-4.68)"></path><path class="cls-1" d="M343.38,188.79V184.2a.61.61,0,0,1,.69-.68h5.06a5.51,5.51,0,0,0,4.08-1.71,5.75,5.75,0,0,0,1.68-4.18V165.17h5.61V178a11.25,11.25,0,0,1-1.54,5.79,11.5,11.5,0,0,1-4.14,4.17,11.07,11.07,0,0,1-5.75,1.55h-5A.61.61,0,0,1,343.38,188.79Zm1.3-36.15h6v6h-6Zm9.59,0h6.09v6h-6.09Z" transform="translate(-4.68)"></path><path class="cls-1" d="M391.31,216.93a18,18,0,0,1-6.54-6.5,17.31,17.31,0,0,1-2.43-9,15.8,15.8,0,0,1,2.16-8.18,16.35,16.35,0,0,1,5.85-5.86,20.13,20.13,0,0,1,8.22-2.67c.18,0,.47-.2.86-.62s.67-.61.85-.61h21.23a.6.6,0,0,1,.68.68v4.59a.61.61,0,0,1-.68.69H400.28a11.54,11.54,0,0,0-5.95,1.6,12.09,12.09,0,0,0-4.35,4.35,11.64,11.64,0,0,0-1.61,6,11.52,11.52,0,0,0,1.61,6,12,12,0,0,0,4.35,4.34,11.55,11.55,0,0,0,5.95,1.61h12.46v6H400.28A17.47,17.47,0,0,1,391.31,216.93Zm23.15-34.75a12.15,12.15,0,0,1-4.66,4.45,13.38,13.38,0,0,1-6.57,1.61H399.8a13.55,13.55,0,0,1-6.6-1.61,11.75,11.75,0,0,1-4.66-4.45,12.46,12.46,0,0,1-1.68-6.47V169h-4v-5.68h33.28v12.39A12.29,12.29,0,0,1,414.46,182.18ZM410.55,169H392.48v7.12a7.17,7.17,0,0,0,2.12,5.24,7,7,0,0,0,5.2,2.16h3.43a7.06,7.06,0,0,0,5.17-2.16,7.15,7.15,0,0,0,2.15-5.24Z" transform="translate(-4.68)"></path><path class="cls-1" d="M420.82,188.79V184.2a.61.61,0,0,1,.69-.68h3.83a5.55,5.55,0,0,0,4.08-1.68,5.49,5.49,0,0,0,1.67-4V170.3h4.52V178a13,13,0,0,1-1.26,5.75,10.14,10.14,0,0,1-3.63,4.14,9.63,9.63,0,0,1-5.38,1.55h-3.83A.61.61,0,0,1,420.82,188.79Zm16.57-1a12.56,12.56,0,0,1-4.62-4.86,13.78,13.78,0,0,1-1.68-6.71V169h-4v-5.68H444a13.61,13.61,0,0,1,6.71,1.71,12.88,12.88,0,0,1,4.86,4.66,12.5,12.5,0,0,1,1.78,6.57,13.23,13.23,0,0,1-1.78,6.71,13,13,0,0,1-4.86,4.86,13.16,13.16,0,0,1-6.71,1.78A12.47,12.47,0,0,1,437.39,187.83Zm11.81-6.33a7.14,7.14,0,0,0,2.16-5.24,6.91,6.91,0,0,0-2.16-5.13A7.15,7.15,0,0,0,444,169h-7.33v7.26a7.22,7.22,0,0,0,2.12,5.24,7,7,0,0,0,5.21,2.16A7.1,7.1,0,0,0,449.2,181.5Zm8.43,6.43a10,10,0,0,1-3.63-4.14,12.87,12.87,0,0,1-1.27-5.75v-1.78h4.59v1.57a5.74,5.74,0,0,0,5.75,5.69h3.22a.6.6,0,0,1,.68.68v4.59a.61.61,0,0,1-.68.69h-3.22A9.71,9.71,0,0,1,457.63,187.93Z" transform="translate(-4.68)"></path><path class="cls-1" d="M466.29,183.52h4a5.58,5.58,0,0,0,4-1.68,5.42,5.42,0,0,0,1.71-4V167.29h5.62v10.54a5.45,5.45,0,0,0,1.67,4,5.64,5.64,0,0,0,4.08,1.64h3.9a.6.6,0,0,1,.68.68v4.59a.6.6,0,0,1-.68.69h-3.9a10,10,0,0,1-5.07-1.31,9.43,9.43,0,0,1-3.56-3.56,9,9,0,0,1-3.46,3.56,9.75,9.75,0,0,1-5,1.31h-4a.61.61,0,0,1-.69-.69V184.2A.61.61,0,0,1,466.29,183.52Zm4.72-28.9h6.1v6.1H471Zm9.66,0h6v6.1h-6Z" transform="translate(-4.68)"></path><path class="cls-1" d="M490.59,188.79V184.2a.61.61,0,0,1,.69-.68h12.53a16.19,16.19,0,0,0,5.68-1,14.62,14.62,0,0,0,4.66-2.78l8.63-7.87-12.06-5.75a7.1,7.1,0,0,0-2.87-.76,5.72,5.72,0,0,0-2.36.55,7.2,7.2,0,0,0-2.09,1.44L498.47,173l-3.9-3.35,4.93-6a10.7,10.7,0,0,1,3.69-2.8,10.94,10.94,0,0,1,4.73-1,8.32,8.32,0,0,1,2.6.34,18.73,18.73,0,0,1,2.4,1l14.92,7a2.85,2.85,0,0,0,1.24.21h5.68v5.54h-6.51l-3,2.74v1.23a5.46,5.46,0,0,0,1.68,4,5.53,5.53,0,0,0,4.07,1.68h6.92a.6.6,0,0,1,.68.68v4.59a.61.61,0,0,1-.68.69H531a9.49,9.49,0,0,1-6.61-2.47,11.16,11.16,0,0,1-3.45-6.3l-3.63,3.42a19.29,19.29,0,0,1-6.54,4,22.65,22.65,0,0,1-7.84,1.37H491.28A.61.61,0,0,1,490.59,188.79Zm14.25,7h6v6.09h-6Z" transform="translate(-4.68)"></path><path class="cls-1" d="M537.22,188.79V184.2a.61.61,0,0,1,.69-.68h3.83a5.55,5.55,0,0,0,4.08-1.68,5.45,5.45,0,0,0,1.67-4v-7.39H552V178a13,13,0,0,1-1.26,5.75,10.14,10.14,0,0,1-3.63,4.14,9.63,9.63,0,0,1-5.38,1.55h-3.83A.61.61,0,0,1,537.22,188.79Zm16.57-1a12.56,12.56,0,0,1-4.62-4.86,13.78,13.78,0,0,1-1.68-6.71V169h-4v-5.68h16.91a13.61,13.61,0,0,1,6.71,1.71,12.88,12.88,0,0,1,4.86,4.66,12.5,12.5,0,0,1,1.78,6.57,13.23,13.23,0,0,1-1.78,6.71,13,13,0,0,1-4.86,4.86,13.16,13.16,0,0,1-6.71,1.78A12.47,12.47,0,0,1,553.79,187.83Zm11.82-6.33a7.17,7.17,0,0,0,2.15-5.24,6.94,6.94,0,0,0-2.15-5.13,7.19,7.19,0,0,0-5.24-2.13H553v7.26a7.22,7.22,0,0,0,2.12,5.24,7,7,0,0,0,5.21,2.16A7.14,7.14,0,0,0,565.61,181.5Z" transform="translate(-4.68)"></path></g></g></svg>